<?xml version='1.0' encoding='utf-8'?>
<svg width="380.70mm" height="346.80mm" viewBox="0.0 0.0 380.70 346.80" xmlns="http://www.w3.org/2000/svg" xmlns:dc="http://purl.org/dc/elements/1.1/" xmlns:cc="http://creativecommons.org/ns#" xmlns:rdf="http://www.w3.org/1999/02/22-rdf-syntax-ns#" xmlns:svg="http://www.w3.org/2000/svg" xmlns:xlink="http://www.w3.org/1999/xlink" xmlns:inkscape="http://www.inkscape.org/namespaces/inkscape">
<!--
ABox - A simple Box


This box is kept simple on purpose. If you need more features have a look at the UniversalBox.


Created with Boxes.py (https://festi.info/boxes.py)
Creation date: 2023-01-26 19:22:10
Command line (remove spaces between dashes): boxes ABox - -FingerJoint_angle=90.0 - -FingerJoint_style=rectangular - -FingerJoint_surroundingspaces=2.0 - -FingerJoint_bottom_lip=0.0 - -FingerJoint_edge_width=1.0 - -FingerJoint_extra_length=0.0 - -FingerJoint_finger=2.0 - -FingerJoint_play=0.0 - -FingerJoint_space=2.0 - -FingerJoint_width=1.0 - -x=148 - -y=210 - -h=50 - -outside=0 - -outside=1 - -bottom_edge=F - -thickness=4 - -format=svg - -tabs=0.0 - -debug=0 - -labels=0 - -labels=1 - -reference=100 - -inner_corners=loop - -burn=0.1
Url: http://www.festi.info/boxes.py/ABox?FingerJoint_angle=90.0&FingerJoint_style=rectangular&FingerJoint_surroundingspaces=2.0&FingerJoint_bottom_lip=0.0&FingerJoint_edge_width=1.0&FingerJoint_extra_length=0.0&FingerJoint_finger=2.0&FingerJoint_play=0.0&FingerJoint_space=2.0&FingerJoint_width=1.0&x=148&y=210&h=50&outside=0&outside=1&bottom_edge=F&thickness=4&format=svg&tabs=0.0&debug=0&labels=0&labels=1&reference=100&inner_corners=loop&burn=0.1&render=2
SettingsUrl: http://www.festi.info/boxes.py/ABox?FingerJoint_angle=90.0&FingerJoint_style=rectangular&FingerJoint_surroundingspaces=2.0&FingerJoint_bottom_lip=0.0&FingerJoint_edge_width=1.0&FingerJoint_extra_length=0.0&FingerJoint_finger=2.0&FingerJoint_play=0.0&FingerJoint_space=2.0&FingerJoint_width=1.0&x=148&y=210&h=50&outside=0&outside=1&bottom_edge=F&thickness=4&format=svg&tabs=0.0&debug=0&labels=0&labels=1&reference=100&inner_corners=loop&burn=0.1&render=2
-->
<title>ABox</title>
<metadata>
<rdf:RDF><cc:Work>
<dc:title>Box - ABox</dc:title>
<dc:date>2023-01-26 19:22:10</dc:date>
<dc:source>http://www.festi.info/boxes.py/ABox?FingerJoint_angle=90.0&amp;FingerJoint_style=rectangular&amp;FingerJoint_surroundingspaces=2.0&amp;FingerJoint_bottom_lip=0.0&amp;FingerJoint_edge_width=1.0&amp;FingerJoint_extra_length=0.0&amp;FingerJoint_finger=2.0&amp;FingerJoint_play=0.0&amp;FingerJoint_space=2.0&amp;FingerJoint_width=1.0&amp;x=148&amp;y=210&amp;h=50&amp;outside=0&amp;outside=1&amp;bottom_edge=F&amp;thickness=4&amp;format=svg&amp;tabs=0.0&amp;debug=0&amp;labels=0&amp;labels=1&amp;reference=100&amp;inner_corners=loop&amp;burn=0.1&amp;render=2</dc:source>
<dc:description>A simple Box

This box is kept simple on purpose. If you need more features have a look at the UniversalBox.

Created with Boxes.py (https://festi.info/boxes.py)
Command line: boxes ABox --FingerJoint_angle=90.0 --FingerJoint_style=rectangular --FingerJoint_surroundingspaces=2.0 --FingerJoint_bottom_lip=0.0 --FingerJoint_edge_width=1.0 --FingerJoint_extra_length=0.0 --FingerJoint_finger=2.0 --FingerJoint_play=0.0 --FingerJoint_space=2.0 --FingerJoint_width=1.0 --x=148 --y=210 --h=50 --outside=0 --outside=1 --bottom_edge=F --thickness=4 --format=svg --tabs=0.0 --debug=0 --labels=0 --labels=1 --reference=100 --inner_corners=loop --burn=0.1
Url: http://www.festi.info/boxes.py/ABox?FingerJoint_angle=90.0&amp;FingerJoint_style=rectangular&amp;FingerJoint_surroundingspaces=2.0&amp;FingerJoint_bottom_lip=0.0&amp;FingerJoint_edge_width=1.0&amp;FingerJoint_extra_length=0.0&amp;FingerJoint_finger=2.0&amp;FingerJoint_play=0.0&amp;FingerJoint_space=2.0&amp;FingerJoint_width=1.0&amp;x=148&amp;y=210&amp;h=50&amp;outside=0&amp;outside=1&amp;bottom_edge=F&amp;thickness=4&amp;format=svg&amp;tabs=0.0&amp;debug=0&amp;labels=0&amp;labels=1&amp;reference=100&amp;inner_corners=loop&amp;burn=0.1&amp;render=2
SettingsUrl: http://www.festi.info/boxes.py/ABox?FingerJoint_angle=90.0&amp;FingerJoint_style=rectangular&amp;FingerJoint_surroundingspaces=2.0&amp;FingerJoint_bottom_lip=0.0&amp;FingerJoint_edge_width=1.0&amp;FingerJoint_extra_length=0.0&amp;FingerJoint_finger=2.0&amp;FingerJoint_play=0.0&amp;FingerJoint_space=2.0&amp;FingerJoint_width=1.0&amp;x=148&amp;y=210&amp;h=50&amp;outside=0&amp;outside=1&amp;bottom_edge=F&amp;thickness=4&amp;format=svg&amp;tabs=0.0&amp;debug=0&amp;labels=0&amp;labels=1&amp;reference=100&amp;inner_corners=loop&amp;burn=0.1&amp;render=2
</dc:description>
</cc:Work></rdf:RDF></metadata>
<g id="p-0" style="fill:none;stroke-linecap:round;stroke-linejoin:round;">
  <path d="M 10.400 336.800 H 110.400 V 326.800 H 10.400 V 336.800 Z" stroke="rgb(0,0,0)" stroke-width="0.20" />
  <text transform="matrix( 1.000 0.000 0.000 1.000 60.400 327.800 )" style="font-family: sans-serif ; font-weight: normal; font-style: normal; fill: rgb(255,0,0)" font-size="8px" text-anchor="middle" dominant-baseline="hanging">100mm, burn:0.10mm</text>
</g>
<g id="p-1" style="fill:none;stroke-linecap:round;stroke-linejoin:round;">
  <path d="M 14.400 324.600 H 24.400 C 24.455 324.600 24.500 324.555 24.500 324.500 V 320.600 C 24.500 320.500 24.400 320.600 24.500 320.600 H 32.300 C 32.400 320.600 32.300 320.500 32.300 320.600 V 324.500 C 32.300 324.555 32.345 324.600 32.400 324.600 H 40.400 C 40.455 324.600 40.500 324.555 40.500 324.500 V 320.600 C 40.500 320.500 40.400 320.600 40.500 320.600 H 48.300 C 48.400 320.600 48.300 320.500 48.300 320.600 V 324.500 C 48.300 324.555 48.345 324.600 48.400 324.600 H 56.400 C 56.455 324.600 56.500 324.555 56.500 324.500 V 320.600 C 56.500 320.500 56.400 320.600 56.500 320.600 H 64.300 C 64.400 320.600 64.300 320.500 64.300 320.600 V 324.500 C 64.300 324.555 64.345 324.600 64.400 324.600 H 72.400 C 72.455 324.600 72.500 324.555 72.500 324.500 V 320.600 C 72.500 320.500 72.400 320.600 72.500 320.600 H 80.300 C 80.400 320.600 80.300 320.500 80.300 320.600 V 324.500 C 80.300 324.555 80.345 324.600 80.400 324.600 H 88.400 C 88.455 324.600 88.500 324.555 88.500 324.500 V 320.600 C 88.500 320.500 88.400 320.600 88.500 320.600 H 96.300 C 96.400 320.600 96.300 320.500 96.300 320.600 V 324.500 C 96.300 324.555 96.345 324.600 96.400 324.600 H 104.400 C 104.455 324.600 104.500 324.555 104.500 324.500 V 320.600 C 104.500 320.500 104.400 320.600 104.500 320.600 H 112.300 C 112.400 320.600 112.300 320.500 112.300 320.600 V 324.500 C 112.300 324.555 112.345 324.600 112.400 324.600 H 120.400 C 120.455 324.600 120.500 324.555 120.500 324.500 V 320.600 C 120.500 320.500 120.400 320.600 120.500 320.600 H 128.300 C 128.400 320.600 128.300 320.500 128.300 320.600 V 324.500 C 128.300 324.555 128.345 324.600 128.400 324.600 H 136.400 C 136.455 324.600 136.500 324.555 136.500 324.500 V 320.600 C 136.500 320.500 136.400 320.600 136.500 320.600 H 144.300 C 144.400 320.600 144.300 320.500 144.300 320.600 V 324.500 C 144.300 324.555 144.345 324.600 144.400 324.600 H 154.400 H 158.400 C 158.455 324.600 158.500 324.555 158.500 324.500 V 311.500 C 158.500 311.445 158.455 311.400 158.400 311.400 H 154.500 C 154.400 311.400 154.500 311.500 154.500 311.400 V 303.600 C 154.500 303.500 154.400 303.600 154.500 303.600 H 158.400 C 158.455 303.600 158.500 303.555 158.500 303.500 V 295.500 C 158.500 295.445 158.455 295.400 158.400 295.400 H 154.500 C 154.400 295.400 154.500 295.500 154.500 295.400 V 287.600 C 154.500 287.500 154.400 287.600 154.500 287.600 H 158.400 C 158.455 287.600 158.500 287.555 158.500 287.500 V 274.500 C 158.500 274.445 158.455 274.400 158.400 274.400 H 154.400 H 14.400 H 10.400 C 10.345 274.400 10.300 274.445 10.300 274.500 V 287.500 C 10.300 287.555 10.345 287.600 10.400 287.600 H 14.300 C 14.400 287.600 14.300 287.500 14.300 287.600 V 295.400 C 14.300 295.500 14.400 295.400 14.300 295.400 H 10.400 C 10.345 295.400 10.300 295.445 10.300 295.500 V 303.500 C 10.300 303.555 10.345 303.600 10.400 303.600 H 14.300 C 14.400 303.600 14.300 303.500 14.300 303.600 V 311.400 C 14.300 311.500 14.400 311.400 14.300 311.400 H 10.400 C 10.345 311.400 10.300 311.445 10.300 311.500 V 324.500 C 10.300 324.555 10.345 324.600 10.400 324.600 H 14.400 Z" stroke="rgb(0,0,0)" stroke-width="0.20" />
</g>
<g id="p-2" style="fill:none;stroke-linecap:round;stroke-linejoin:round;">
  <path d="M 14.400 272.400 H 24.400 C 24.455 272.400 24.500 272.355 24.500 272.300 V 268.400 C 24.500 268.300 24.400 268.400 24.500 268.400 H 32.300 C 32.400 268.400 32.300 268.300 32.300 268.400 V 272.300 C 32.300 272.355 32.345 272.400 32.400 272.400 H 40.400 C 40.455 272.400 40.500 272.355 40.500 272.300 V 268.400 C 40.500 268.300 40.400 268.400 40.500 268.400 H 48.300 C 48.400 268.400 48.300 268.300 48.300 268.400 V 272.300 C 48.300 272.355 48.345 272.400 48.400 272.400 H 56.400 C 56.455 272.400 56.500 272.355 56.500 272.300 V 268.400 C 56.500 268.300 56.400 268.400 56.500 268.400 H 64.300 C 64.400 268.400 64.300 268.300 64.300 268.400 V 272.300 C 64.300 272.355 64.345 272.400 64.400 272.400 H 72.400 C 72.455 272.400 72.500 272.355 72.500 272.300 V 268.400 C 72.500 268.300 72.400 268.400 72.500 268.400 H 80.300 C 80.400 268.400 80.300 268.300 80.300 268.400 V 272.300 C 80.300 272.355 80.345 272.400 80.400 272.400 H 88.400 C 88.455 272.400 88.500 272.355 88.500 272.300 V 268.400 C 88.500 268.300 88.400 268.400 88.500 268.400 H 96.300 C 96.400 268.400 96.300 268.300 96.300 268.400 V 272.300 C 96.300 272.355 96.345 272.400 96.400 272.400 H 104.400 C 104.455 272.400 104.500 272.355 104.500 272.300 V 268.400 C 104.500 268.300 104.400 268.400 104.500 268.400 H 112.300 C 112.400 268.400 112.300 268.300 112.300 268.400 V 272.300 C 112.300 272.355 112.345 272.400 112.400 272.400 H 120.400 C 120.455 272.400 120.500 272.355 120.500 272.300 V 268.400 C 120.500 268.300 120.400 268.400 120.500 268.400 H 128.300 C 128.400 268.400 128.300 268.300 128.300 268.400 V 272.300 C 128.300 272.355 128.345 272.400 128.400 272.400 H 136.400 C 136.455 272.400 136.500 272.355 136.500 272.300 V 268.400 C 136.500 268.300 136.400 268.400 136.500 268.400 H 144.300 C 144.400 268.400 144.300 268.300 144.300 268.400 V 272.300 C 144.300 272.355 144.345 272.400 144.400 272.400 H 154.400 H 158.400 C 158.455 272.400 158.500 272.355 158.500 272.300 V 259.300 C 158.500 259.245 158.455 259.200 158.400 259.200 H 154.500 C 154.400 259.200 154.500 259.300 154.500 259.200 V 251.400 C 154.500 251.300 154.400 251.400 154.500 251.400 H 158.400 C 158.455 251.400 158.500 251.355 158.500 251.300 V 243.300 C 158.500 243.245 158.455 243.200 158.400 243.200 H 154.500 C 154.400 243.200 154.500 243.300 154.500 243.200 V 235.400 C 154.500 235.300 154.400 235.400 154.500 235.400 H 158.400 C 158.455 235.400 158.500 235.355 158.500 235.300 V 222.300 C 158.500 222.245 158.455 222.200 158.400 222.200 H 154.400 H 14.400 H 10.400 C 10.345 222.200 10.300 222.245 10.300 222.300 V 235.300 C 10.300 235.355 10.345 235.400 10.400 235.400 H 14.300 C 14.400 235.400 14.300 235.300 14.300 235.400 V 243.200 C 14.300 243.300 14.400 243.200 14.300 243.200 H 10.400 C 10.345 243.200 10.300 243.245 10.300 243.300 V 251.300 C 10.300 251.355 10.345 251.400 10.400 251.400 H 14.300 C 14.400 251.400 14.300 251.300 14.300 251.400 V 259.200 C 14.300 259.300 14.400 259.200 14.300 259.200 H 10.400 C 10.345 259.200 10.300 259.245 10.300 259.300 V 272.300 C 10.300 272.355 10.345 272.400 10.400 272.400 H 14.400 Z" stroke="rgb(0,0,0)" stroke-width="0.20" />
</g>
<g id="p-3" style="fill:none;stroke-linecap:round;stroke-linejoin:round;">
  <path d="M 14.400 216.200 H 24.300 C 24.400 216.200 24.300 216.100 24.300 216.200 V 220.100 C 24.300 220.155 24.345 220.200 24.400 220.200 H 32.400 C 32.455 220.200 32.500 220.155 32.500 220.100 V 216.200 C 32.500 216.100 32.400 216.200 32.500 216.200 H 40.300 C 40.400 216.200 40.300 216.100 40.300 216.200 V 220.100 C 40.300 220.155 40.345 220.200 40.400 220.200 H 48.400 C 48.455 220.200 48.500 220.155 48.500 220.100 V 216.200 C 48.500 216.100 48.400 216.200 48.500 216.200 H 56.300 C 56.400 216.200 56.300 216.100 56.300 216.200 V 220.100 C 56.300 220.155 56.345 220.200 56.400 220.200 H 64.400 C 64.455 220.200 64.500 220.155 64.500 220.100 V 216.200 C 64.500 216.100 64.400 216.200 64.500 216.200 H 72.300 C 72.400 216.200 72.300 216.100 72.300 216.200 V 220.100 C 72.300 220.155 72.345 220.200 72.400 220.200 H 80.400 C 80.455 220.200 80.500 220.155 80.500 220.100 V 216.200 C 80.500 216.100 80.400 216.200 80.500 216.200 H 88.300 C 88.400 216.200 88.300 216.100 88.300 216.200 V 220.100 C 88.300 220.155 88.345 220.200 88.400 220.200 H 96.400 C 96.455 220.200 96.500 220.155 96.500 220.100 V 216.200 C 96.500 216.100 96.400 216.200 96.500 216.200 H 104.300 C 104.400 216.200 104.300 216.100 104.300 216.200 V 220.100 C 104.300 220.155 104.345 220.200 104.400 220.200 H 112.400 C 112.455 220.200 112.500 220.155 112.500 220.100 V 216.200 C 112.500 216.100 112.400 216.200 112.500 216.200 H 120.300 C 120.400 216.200 120.300 216.100 120.300 216.200 V 220.100 C 120.300 220.155 120.345 220.200 120.400 220.200 H 128.400 C 128.455 220.200 128.500 220.155 128.500 220.100 V 216.200 C 128.500 216.100 128.400 216.200 128.500 216.200 H 136.300 C 136.400 216.200 136.300 216.100 136.300 216.200 V 220.100 C 136.300 220.155 136.345 220.200 136.400 220.200 H 144.400 C 144.455 220.200 144.500 220.155 144.500 220.100 V 216.200 C 144.500 216.100 144.400 216.200 144.500 216.200 H 154.400 C 154.455 216.200 154.500 216.155 154.500 216.100 V 207.200 C 154.500 207.100 154.400 207.200 154.500 207.200 H 158.400 C 158.455 207.200 158.500 207.155 158.500 207.100 V 199.100 C 158.500 199.045 158.455 199.000 158.400 199.000 H 154.500 C 154.400 199.000 154.500 199.100 154.500 199.000 V 191.200 C 154.500 191.100 154.400 191.200 154.500 191.200 H 158.400 C 158.455 191.200 158.500 191.155 158.500 191.100 V 183.100 C 158.500 183.045 158.455 183.000 158.400 183.000 H 154.500 C 154.400 183.000 154.500 183.100 154.500 183.000 V 175.200 C 154.500 175.100 154.400 175.200 154.500 175.200 H 158.400 C 158.455 175.200 158.500 175.155 158.500 175.100 V 167.100 C 158.500 167.045 158.455 167.000 158.400 167.000 H 154.500 C 154.400 167.000 154.500 167.100 154.500 167.000 V 159.200 C 154.500 159.100 154.400 159.200 154.500 159.200 H 158.400 C 158.455 159.200 158.500 159.155 158.500 159.100 V 151.100 C 158.500 151.045 158.455 151.000 158.400 151.000 H 154.500 C 154.400 151.000 154.500 151.100 154.500 151.000 V 143.200 C 154.500 143.100 154.400 143.200 154.500 143.200 H 158.400 C 158.455 143.200 158.500 143.155 158.500 143.100 V 135.100 C 158.500 135.045 158.455 135.000 158.400 135.000 H 154.500 C 154.400 135.000 154.500 135.100 154.500 135.000 V 127.200 C 154.500 127.100 154.400 127.200 154.500 127.200 H 158.400 C 158.455 127.200 158.500 127.155 158.500 127.100 V 119.100 C 158.500 119.045 158.455 119.000 158.400 119.000 H 154.500 C 154.400 119.000 154.500 119.100 154.500 119.000 V 111.200 C 154.500 111.100 154.400 111.200 154.500 111.200 H 158.400 C 158.455 111.200 158.500 111.155 158.500 111.100 V 103.100 C 158.500 103.045 158.455 103.000 158.400 103.000 H 154.500 C 154.400 103.000 154.500 103.100 154.500 103.000 V 95.200 C 154.500 95.100 154.400 95.200 154.500 95.200 H 158.400 C 158.455 95.200 158.500 95.155 158.500 95.100 V 87.100 C 158.500 87.045 158.455 87.000 158.400 87.000 H 154.500 C 154.400 87.000 154.500 87.100 154.500 87.000 V 79.200 C 154.500 79.100 154.400 79.200 154.500 79.200 H 158.400 C 158.455 79.200 158.500 79.155 158.500 79.100 V 71.100 C 158.500 71.045 158.455 71.000 158.400 71.000 H 154.500 C 154.400 71.000 154.500 71.100 154.500 71.000 V 63.200 C 154.500 63.100 154.400 63.200 154.500 63.200 H 158.400 C 158.455 63.200 158.500 63.155 158.500 63.100 V 55.100 C 158.500 55.045 158.455 55.000 158.400 55.000 H 154.500 C 154.400 55.000 154.500 55.100 154.500 55.000 V 47.200 C 154.500 47.100 154.400 47.200 154.500 47.200 H 158.400 C 158.455 47.200 158.500 47.155 158.500 47.100 V 39.100 C 158.500 39.045 158.455 39.000 158.400 39.000 H 154.500 C 154.400 39.000 154.500 39.100 154.500 39.000 V 31.200 C 154.500 31.100 154.400 31.200 154.500 31.200 H 158.400 C 158.455 31.200 158.500 31.155 158.500 31.100 V 23.100 C 158.500 23.045 158.455 23.000 158.400 23.000 H 154.500 C 154.400 23.000 154.500 23.100 154.500 23.000 V 14.100 C 154.500 14.045 154.455 14.000 154.400 14.000 H 144.500 C 144.400 14.000 144.500 14.100 144.500 14.000 V 10.100 C 144.500 10.045 144.455 10.000 144.400 10.000 H 136.400 C 136.345 10.000 136.300 10.045 136.300 10.100 V 14.000 C 136.300 14.100 136.400 14.000 136.300 14.000 H 128.500 C 128.400 14.000 128.500 14.100 128.500 14.000 V 10.100 C 128.500 10.045 128.455 10.000 128.400 10.000 H 120.400 C 120.345 10.000 120.300 10.045 120.300 10.100 V 14.000 C 120.300 14.100 120.400 14.000 120.300 14.000 H 112.500 C 112.400 14.000 112.500 14.100 112.500 14.000 V 10.100 C 112.500 10.045 112.455 10.000 112.400 10.000 H 104.400 C 104.345 10.000 104.300 10.045 104.300 10.100 V 14.000 C 104.300 14.100 104.400 14.000 104.300 14.000 H 96.500 C 96.400 14.000 96.500 14.100 96.500 14.000 V 10.100 C 96.500 10.045 96.455 10.000 96.400 10.000 H 88.400 C 88.345 10.000 88.300 10.045 88.300 10.100 V 14.000 C 88.300 14.100 88.400 14.000 88.300 14.000 H 80.500 C 80.400 14.000 80.500 14.100 80.500 14.000 V 10.100 C 80.500 10.045 80.455 10.000 80.400 10.000 H 72.400 C 72.345 10.000 72.300 10.045 72.300 10.100 V 14.000 C 72.300 14.100 72.400 14.000 72.300 14.000 H 64.500 C 64.400 14.000 64.500 14.100 64.500 14.000 V 10.100 C 64.500 10.045 64.455 10.000 64.400 10.000 H 56.400 C 56.345 10.000 56.300 10.045 56.300 10.100 V 14.000 C 56.300 14.100 56.400 14.000 56.300 14.000 H 48.500 C 48.400 14.000 48.500 14.100 48.500 14.000 V 10.100 C 48.500 10.045 48.455 10.000 48.400 10.000 H 40.400 C 40.345 10.000 40.300 10.045 40.300 10.100 V 14.000 C 40.300 14.100 40.400 14.000 40.300 14.000 H 32.500 C 32.400 14.000 32.500 14.100 32.500 14.000 V 10.100 C 32.500 10.045 32.455 10.000 32.400 10.000 H 24.400 C 24.345 10.000 24.300 10.045 24.300 10.100 V 14.000 C 24.300 14.100 24.400 14.000 24.300 14.000 H 14.400 C 14.345 14.000 14.300 14.045 14.300 14.100 V 23.000 C 14.300 23.100 14.400 23.000 14.300 23.000 H 10.400 C 10.345 23.000 10.300 23.045 10.300 23.100 V 31.100 C 10.300 31.155 10.345 31.200 10.400 31.200 H 14.300 C 14.400 31.200 14.300 31.100 14.300 31.200 V 39.000 C 14.300 39.100 14.400 39.000 14.300 39.000 H 10.400 C 10.345 39.000 10.300 39.045 10.300 39.100 V 47.100 C 10.300 47.155 10.345 47.200 10.400 47.200 H 14.300 C 14.400 47.200 14.300 47.100 14.300 47.200 V 55.000 C 14.300 55.100 14.400 55.000 14.300 55.000 H 10.400 C 10.345 55.000 10.300 55.045 10.300 55.100 V 63.100 C 10.300 63.155 10.345 63.200 10.400 63.200 H 14.300 C 14.400 63.200 14.300 63.100 14.300 63.200 V 71.000 C 14.300 71.100 14.400 71.000 14.300 71.000 H 10.400 C 10.345 71.000 10.300 71.045 10.300 71.100 V 79.100 C 10.300 79.155 10.345 79.200 10.400 79.200 H 14.300 C 14.400 79.200 14.300 79.100 14.300 79.200 V 87.000 C 14.300 87.100 14.400 87.000 14.300 87.000 H 10.400 C 10.345 87.000 10.300 87.045 10.300 87.100 V 95.100 C 10.300 95.155 10.345 95.200 10.400 95.200 H 14.300 C 14.400 95.200 14.300 95.100 14.300 95.200 V 103.000 C 14.300 103.100 14.400 103.000 14.300 103.000 H 10.400 C 10.345 103.000 10.300 103.045 10.300 103.100 V 111.100 C 10.300 111.155 10.345 111.200 10.400 111.200 H 14.300 C 14.400 111.200 14.300 111.100 14.300 111.200 V 119.000 C 14.300 119.100 14.400 119.000 14.300 119.000 H 10.400 C 10.345 119.000 10.300 119.045 10.300 119.100 V 127.100 C 10.300 127.155 10.345 127.200 10.400 127.200 H 14.300 C 14.400 127.200 14.300 127.100 14.300 127.200 V 135.000 C 14.300 135.100 14.400 135.000 14.300 135.000 H 10.400 C 10.345 135.000 10.300 135.045 10.300 135.100 V 143.100 C 10.300 143.155 10.345 143.200 10.400 143.200 H 14.300 C 14.400 143.200 14.300 143.100 14.300 143.200 V 151.000 C 14.300 151.100 14.400 151.000 14.300 151.000 H 10.400 C 10.345 151.000 10.300 151.045 10.300 151.100 V 159.100 C 10.300 159.155 10.345 159.200 10.400 159.200 H 14.300 C 14.400 159.200 14.300 159.100 14.300 159.200 V 167.000 C 14.300 167.100 14.400 167.000 14.300 167.000 H 10.400 C 10.345 167.000 10.300 167.045 10.300 167.100 V 175.100 C 10.300 175.155 10.345 175.200 10.400 175.200 H 14.300 C 14.400 175.200 14.300 175.100 14.300 175.200 V 183.000 C 14.300 183.100 14.400 183.000 14.300 183.000 H 10.400 C 10.345 183.000 10.300 183.045 10.300 183.100 V 191.100 C 10.300 191.155 10.345 191.200 10.400 191.200 H 14.300 C 14.400 191.200 14.300 191.100 14.300 191.200 V 199.000 C 14.300 199.100 14.400 199.000 14.300 199.000 H 10.400 C 10.345 199.000 10.300 199.045 10.300 199.100 V 207.100 C 10.300 207.155 10.345 207.200 10.400 207.200 H 14.300 C 14.400 207.200 14.300 207.100 14.300 207.200 V 216.100 C 14.300 216.155 14.345 216.200 14.400 216.200 Z" stroke="rgb(0,0,0)" stroke-width="0.20" />
</g>
<g id="p-4" style="fill:none;stroke-linecap:round;stroke-linejoin:round;">
  <path d="M 164.600 324.600 H 173.600 C 173.655 324.600 173.700 324.555 173.700 324.500 V 320.600 C 173.700 320.500 173.600 320.600 173.700 320.600 H 181.500 C 181.600 320.600 181.500 320.500 181.500 320.600 V 324.500 C 181.500 324.555 181.545 324.600 181.600 324.600 H 189.600 C 189.655 324.600 189.700 324.555 189.700 324.500 V 320.600 C 189.700 320.500 189.600 320.600 189.700 320.600 H 197.500 C 197.600 320.600 197.500 320.500 197.500 320.600 V 324.500 C 197.500 324.555 197.545 324.600 197.600 324.600 H 205.600 C 205.655 324.600 205.700 324.555 205.700 324.500 V 320.600 C 205.700 320.500 205.600 320.600 205.700 320.600 H 213.500 C 213.600 320.600 213.500 320.500 213.500 320.600 V 324.500 C 213.500 324.555 213.545 324.600 213.600 324.600 H 221.600 C 221.655 324.600 221.700 324.555 221.700 324.500 V 320.600 C 221.700 320.500 221.600 320.600 221.700 320.600 H 229.500 C 229.600 320.600 229.500 320.500 229.500 320.600 V 324.500 C 229.500 324.555 229.545 324.600 229.600 324.600 H 237.600 C 237.655 324.600 237.700 324.555 237.700 324.500 V 320.600 C 237.700 320.500 237.600 320.600 237.700 320.600 H 245.500 C 245.600 320.600 245.500 320.500 245.500 320.600 V 324.500 C 245.500 324.555 245.545 324.600 245.600 324.600 H 253.600 C 253.655 324.600 253.700 324.555 253.700 324.500 V 320.600 C 253.700 320.500 253.600 320.600 253.700 320.600 H 261.500 C 261.600 320.600 261.500 320.500 261.500 320.600 V 324.500 C 261.500 324.555 261.545 324.600 261.600 324.600 H 269.600 C 269.655 324.600 269.700 324.555 269.700 324.500 V 320.600 C 269.700 320.500 269.600 320.600 269.700 320.600 H 277.500 C 277.600 320.600 277.500 320.500 277.500 320.600 V 324.500 C 277.500 324.555 277.545 324.600 277.600 324.600 H 285.600 C 285.655 324.600 285.700 324.555 285.700 324.500 V 320.600 C 285.700 320.500 285.600 320.600 285.700 320.600 H 293.500 C 293.600 320.600 293.500 320.500 293.500 320.600 V 324.500 C 293.500 324.555 293.545 324.600 293.600 324.600 H 301.600 C 301.655 324.600 301.700 324.555 301.700 324.500 V 320.600 C 301.700 320.500 301.600 320.600 301.700 320.600 H 309.500 C 309.600 320.600 309.500 320.500 309.500 320.600 V 324.500 C 309.500 324.555 309.545 324.600 309.600 324.600 H 317.600 C 317.655 324.600 317.700 324.555 317.700 324.500 V 320.600 C 317.700 320.500 317.600 320.600 317.700 320.600 H 325.500 C 325.600 320.600 325.500 320.500 325.500 320.600 V 324.500 C 325.500 324.555 325.545 324.600 325.600 324.600 H 333.600 C 333.655 324.600 333.700 324.555 333.700 324.500 V 320.600 C 333.700 320.500 333.600 320.600 333.700 320.600 H 341.500 C 341.600 320.600 341.500 320.500 341.500 320.600 V 324.500 C 341.500 324.555 341.545 324.600 341.600 324.600 H 349.600 C 349.655 324.600 349.700 324.555 349.700 324.500 V 320.600 C 349.700 320.500 349.600 320.600 349.700 320.600 H 357.500 C 357.600 320.600 357.500 320.500 357.500 320.600 V 324.500 C 357.500 324.555 357.545 324.600 357.600 324.600 H 366.600 C 366.655 324.600 366.700 324.555 366.700 324.500 V 311.600 C 366.700 311.500 366.600 311.600 366.700 311.600 H 370.600 C 370.655 311.600 370.700 311.555 370.700 311.500 V 303.500 C 370.700 303.445 370.655 303.400 370.600 303.400 H 366.700 C 366.600 303.400 366.700 303.500 366.700 303.400 V 295.600 C 366.700 295.500 366.600 295.600 366.700 295.600 H 370.600 C 370.655 295.600 370.700 295.555 370.700 295.500 V 287.500 C 370.700 287.445 370.655 287.400 370.600 287.400 H 366.700 C 366.600 287.400 366.700 287.500 366.700 287.400 V 274.500 C 366.700 274.445 366.655 274.400 366.600 274.400 H 164.600 C 164.545 274.400 164.500 274.445 164.500 274.500 V 287.400 C 164.500 287.500 164.600 287.400 164.500 287.400 H 160.600 C 160.545 287.400 160.500 287.445 160.500 287.500 V 295.500 C 160.500 295.555 160.545 295.600 160.600 295.600 H 164.500 C 164.600 295.600 164.500 295.500 164.500 295.600 V 303.400 C 164.500 303.500 164.600 303.400 164.500 303.400 H 160.600 C 160.545 303.400 160.500 303.445 160.500 303.500 V 311.500 C 160.500 311.555 160.545 311.600 160.600 311.600 H 164.500 C 164.600 311.600 164.500 311.500 164.500 311.600 V 324.500 C 164.500 324.555 164.545 324.600 164.600 324.600 Z" stroke="rgb(0,0,0)" stroke-width="0.20" />
</g>
<g id="p-5" style="fill:none;stroke-linecap:round;stroke-linejoin:round;">
  <path d="M 164.600 272.400 H 173.600 C 173.655 272.400 173.700 272.355 173.700 272.300 V 268.400 C 173.700 268.300 173.600 268.400 173.700 268.400 H 181.500 C 181.600 268.400 181.500 268.300 181.500 268.400 V 272.300 C 181.500 272.355 181.545 272.400 181.600 272.400 H 189.600 C 189.655 272.400 189.700 272.355 189.700 272.300 V 268.400 C 189.700 268.300 189.600 268.400 189.700 268.400 H 197.500 C 197.600 268.400 197.500 268.300 197.500 268.400 V 272.300 C 197.500 272.355 197.545 272.400 197.600 272.400 H 205.600 C 205.655 272.400 205.700 272.355 205.700 272.300 V 268.400 C 205.700 268.300 205.600 268.400 205.700 268.400 H 213.500 C 213.600 268.400 213.500 268.300 213.500 268.400 V 272.300 C 213.500 272.355 213.545 272.400 213.600 272.400 H 221.600 C 221.655 272.400 221.700 272.355 221.700 272.300 V 268.400 C 221.700 268.300 221.600 268.400 221.700 268.400 H 229.500 C 229.600 268.400 229.500 268.300 229.500 268.400 V 272.300 C 229.500 272.355 229.545 272.400 229.600 272.400 H 237.600 C 237.655 272.400 237.700 272.355 237.700 272.300 V 268.400 C 237.700 268.300 237.600 268.400 237.700 268.400 H 245.500 C 245.600 268.400 245.500 268.300 245.500 268.400 V 272.300 C 245.500 272.355 245.545 272.400 245.600 272.400 H 253.600 C 253.655 272.400 253.700 272.355 253.700 272.300 V 268.400 C 253.700 268.300 253.600 268.400 253.700 268.400 H 261.500 C 261.600 268.400 261.500 268.300 261.500 268.400 V 272.300 C 261.500 272.355 261.545 272.400 261.600 272.400 H 269.600 C 269.655 272.400 269.700 272.355 269.700 272.300 V 268.400 C 269.700 268.300 269.600 268.400 269.700 268.400 H 277.500 C 277.600 268.400 277.500 268.300 277.500 268.400 V 272.300 C 277.500 272.355 277.545 272.400 277.600 272.400 H 285.600 C 285.655 272.400 285.700 272.355 285.700 272.300 V 268.400 C 285.700 268.300 285.600 268.400 285.700 268.400 H 293.500 C 293.600 268.400 293.500 268.300 293.500 268.400 V 272.300 C 293.500 272.355 293.545 272.400 293.600 272.400 H 301.600 C 301.655 272.400 301.700 272.355 301.700 272.300 V 268.400 C 301.700 268.300 301.600 268.400 301.700 268.400 H 309.500 C 309.600 268.400 309.500 268.300 309.500 268.400 V 272.300 C 309.500 272.355 309.545 272.400 309.600 272.400 H 317.600 C 317.655 272.400 317.700 272.355 317.700 272.300 V 268.400 C 317.700 268.300 317.600 268.400 317.700 268.400 H 325.500 C 325.600 268.400 325.500 268.300 325.500 268.400 V 272.300 C 325.500 272.355 325.545 272.400 325.600 272.400 H 333.600 C 333.655 272.400 333.700 272.355 333.700 272.300 V 268.400 C 333.700 268.300 333.600 268.400 333.700 268.400 H 341.500 C 341.600 268.400 341.500 268.300 341.500 268.400 V 272.300 C 341.500 272.355 341.545 272.400 341.600 272.400 H 349.600 C 349.655 272.400 349.700 272.355 349.700 272.300 V 268.400 C 349.700 268.300 349.600 268.400 349.700 268.400 H 357.500 C 357.600 268.400 357.500 268.300 357.500 268.400 V 272.300 C 357.500 272.355 357.545 272.400 357.600 272.400 H 366.600 C 366.655 272.400 366.700 272.355 366.700 272.300 V 259.400 C 366.700 259.300 366.600 259.400 366.700 259.400 H 370.600 C 370.655 259.400 370.700 259.355 370.700 259.300 V 251.300 C 370.700 251.245 370.655 251.200 370.600 251.200 H 366.700 C 366.600 251.200 366.700 251.300 366.700 251.200 V 243.400 C 366.700 243.300 366.600 243.400 366.700 243.400 H 370.600 C 370.655 243.400 370.700 243.355 370.700 243.300 V 235.300 C 370.700 235.245 370.655 235.200 370.600 235.200 H 366.700 C 366.600 235.200 366.700 235.300 366.700 235.200 V 222.300 C 366.700 222.245 366.655 222.200 366.600 222.200 H 164.600 C 164.545 222.200 164.500 222.245 164.500 222.300 V 235.200 C 164.500 235.300 164.600 235.200 164.500 235.200 H 160.600 C 160.545 235.200 160.500 235.245 160.500 235.300 V 243.300 C 160.500 243.355 160.545 243.400 160.600 243.400 H 164.500 C 164.600 243.400 164.500 243.300 164.500 243.400 V 251.200 C 164.500 251.300 164.600 251.200 164.500 251.200 H 160.600 C 160.545 251.200 160.500 251.245 160.500 251.300 V 259.300 C 160.500 259.355 160.545 259.400 160.600 259.400 H 164.500 C 164.600 259.400 164.500 259.300 164.500 259.400 V 272.300 C 164.500 272.355 164.545 272.400 164.600 272.400 Z" stroke="rgb(0,0,0)" stroke-width="0.20" />
</g>
</svg>